<svg xmlns="http://www.w3.org/2000/svg" viewBox="0 0 512 512" fill="#FFFFFF">
  <circle cx="256" cy="256" r="256" fill="#E6E6E6"/>
  <path d="M256,60C147.3,60,60,147.3,60,256s87.3,196,196,196s196-87.3,196-196S364.7,60,256,60z M388.7,256
    c0,14.3-2.4,28.1-6.7,41l-59-102.2c-1-1.8-1.9-3.7-1.9-5.8c0-6.3,5.1-11.4,11.4-11.4h69.4C384.7,199.2,388.7,227,388.7,256z
    M307.8,107.9c16.9,6.4,32.4,15.5,46.2,26.9h-77.7l31.5-26.9H307.8z M256,94.1c10.9,0,21.5,1.1,31.8,3l-31.8,27.1l-31.8-27.1
    C234.5,95.2,245.1,94.1,256,94.1z M204.2,107.9h0.1l31.5,26.9h-77.7C172.3,123.4,187.3,114.4,204.2,107.9z M123.3,178.1h69.4
    c6.3,0,11.4,5.1,11.4,11.4c0,2.1-0.9,4-1.9,5.8l-59,102.2c-4.4-12.9-6.7-26.7-6.7-41C136.5,227,139.7,199.2,123.3,178.1z
    M136.9,335.1l59-102.2c3.1-5.3,8.3-8.6,14.5-8.6c9.5,0,17.1,7.7,17.1,17.1v119c-16.4-1.3-32-5.3-46.5-11.5
    C162.4,341.4,149,338.9,136.9,335.1z M243.8,404.1C243.8,404.1,243.8,404.1,243.8,404.1l-31.5-26.9h77.7
    C275.6,389.1,260.7,398.5,243.8,404.1z M256,417.9c-10.9,0-21.5-1.1-31.8-3l31.8-27.1l31.8,27.1
    C277.5,416.8,266.9,417.9,256,417.9z M284.6,341.5v-119c0-9.5,7.7-17.1,17.1-17.1c6.2,0,11.5,3.3,14.5,8.6l59,102.2
    c-12,3.9-25.3,6.6-43.8,14C316.1,336.3,300.9,340.2,284.6,341.5z"/>
</svg> 